# xmcd CD database file
#
# Track frame offsets:
#	150
#	16200
#	48170
#	64610
#	96645
#	135102
#	150705
#	171976
#	185244
#
# Disc length: 2744 seconds
#
# Revision: 0
# Processed by: cddbd v1.5.1PL0 Copyright (c) Steve Scherf et al.
# Submitted via: CDex 1.51
#
DISCID=730ab609
DTITLE=Beata Przybytek Quintet - you don't know what love is
DYEAR=2003
DGENRE=Jazz
TTITLE0=is you is, or is you ain't
TTITLE1=i thought about you
TTITLE2=someday my prince will come
TTITLE3=my funny valentine
TTITLE4=angel eyes
TTITLE5=sugar
TTITLE6=i fall in love too easily
TTITLE7=softly as in a morning sunrise
TTITLE8=you don't know what love is
EXTD=YEAR: 2003
EXTT0=
EXTT1=
EXTT2=
EXTT3=
EXTT4=
EXTT5=
EXTT6=
EXTT7=
EXTT8=
PLAYORDER=
